<svg width="33" height="47" viewBox="0 0 209 172" fill="none" xmlns="http://www.w3.org/2000/svg">
<path d="M24.6597 1.0275C23.2897 -0.3425 21.0797 -0.3425 19.7097 1.0275C18.3397 2.3975 18.3397 4.6075 19.7097 5.9775L49.6597 35.9275V80.0575H0.199707V91.2075H49.7197V152.457L53.5897 150.288C54.0797 150.018 54.4597 149.797 54.8397 149.577L68.6997 141.577C86.9997 131.018 105.31 120.458 123.62 109.908L183.93 170.217C184.61 170.897 185.51 171.247 186.41 171.247C187.31 171.247 188.2 170.908 188.89 170.217C190.26 168.848 190.26 166.637 188.89 165.267L24.6597 1.0275ZM61.0697 133.087V47.3475L115.43 101.708L61.0697 133.087Z" fill="#E6332A"/>
<path d="M194.67 80.0174C182.52 80.0174 169.95 80.0274 157.59 79.9774C156.69 79.9774 155.66 79.7074 154.91 79.2674C127.35 63.4174 99.7999 47.5274 72.2599 31.6274L55.3398 21.8674L85.8499 52.3774L143.35 85.5674L127.94 94.4674L136.16 102.687C142.41 99.0874 148.65 95.4874 154.9 91.8974C155.66 91.4574 156.68 91.1874 157.58 91.1874C169.96 91.1374 182.55 91.1374 194.72 91.1474H208.4V80.0274L194.67 80.0174Z" fill="#E6332A"/>
</svg>
