<svg width="62" height="41" viewBox="0 0 62 41" fill="none" xmlns="http://www.w3.org/2000/svg">
<path d="M48.9396 37.9823C54.493 33.3628 57.4071 27.5379 57.4198 20.4654C57.4326 13.3528 54.4228 7.53842 48.9481 2.95898C49.7996 1.90737 50.5722 0.952708 51.3428 0.0022583C65.0592 10.3961 64.3696 31.3924 51.3194 40.9412C50.5509 39.9865 49.7804 39.0297 48.9396 37.9823Z" fill="#20CE6E"/>
<path d="M13.052 2.99885C7.49645 7.62043 4.5867 13.4622 4.58031 20.5305C4.57393 27.6073 7.5603 33.4153 13.0499 38.0032C12.2112 39.0464 11.4236 40.0242 10.6361 41C-3.46141 29.877 -1.93523 9.31059 10.6552 0.02948C11.4258 0.984145 12.1963 1.93881 13.052 2.99885Z" fill="#20CE6E"/>
<path d="M18.0286 8.2021C14.1695 11.4602 12.0942 15.5191 12.075 20.4736C12.0537 25.4767 14.1929 29.5398 18.0265 32.8105C17.1815 33.8558 16.396 34.8273 15.6148 35.7946C5.14442 27.6874 6.14058 12.183 15.6425 5.2243C16.4194 6.19583 17.2006 7.17157 18.0286 8.2021Z" fill="#20CE6E"/>
<path d="M43.9673 32.8106C47.854 29.5272 49.9081 25.4683 49.9273 20.5095C49.9464 15.5022 47.7944 11.4539 43.9715 8.18948C44.8145 7.14208 45.5978 6.16845 46.3768 5.19904C57.0729 13.3969 55.6787 29.19 46.3428 35.7504C45.5765 34.8021 44.8059 33.8495 43.9673 32.8106Z" fill="#20CE6E"/>
<path d="M41.7472 10.3053C49.0035 15.9869 47.7455 26.3955 41.6961 30.6083C40.9171 29.6346 40.138 28.6547 39.3611 27.6831C43.8907 23.6242 43.9247 17.3188 39.3589 13.2978C40.138 12.32 40.9192 11.34 41.7472 10.3053Z" fill="#20CE6E"/>
<path d="M20.2061 30.7242C16.8749 27.9023 15.1593 24.4503 15.2508 20.2355C15.3381 16.2124 17.0069 12.8974 20.2338 10.2737C21.0959 11.3632 21.8728 12.3432 22.6689 13.3484C20.3913 15.2915 19.2291 17.6623 19.2227 20.5305C19.2164 23.403 20.4786 25.7296 22.6646 27.66C21.8558 28.6673 21.0895 29.622 20.2061 30.7242Z" fill="#20CE6E"/>
<path d="M48.9395 37.9822C49.7824 39.0296 50.5509 39.9863 51.3193 40.941C64.3695 31.3901 65.0592 10.3938 51.3427 0C50.5721 0.952557 49.7995 1.90511 48.948 2.95672C54.4227 7.53616 57.4304 13.3506 57.4197 20.4631C57.407 27.5378 54.4908 33.3606 48.9395 37.9822Z" fill="#20CE6E"/>
<path d="M13.052 2.99885C12.1963 1.93881 11.4258 0.984145 10.6574 0.02948C-1.9331 9.31059 -3.45928 29.877 10.6382 41C11.4236 40.0242 12.2112 39.0464 13.052 38.0032C7.56456 33.4175 4.57818 27.6073 4.58244 20.5305C4.58669 13.4622 7.49645 7.62043 13.052 2.99885Z" fill="#20CE6E"/>
<path d="M18.0286 8.2021C17.2006 7.16946 16.4216 6.19583 15.6425 5.2243C6.13846 12.1851 5.14441 27.6874 15.6148 35.7946C16.3981 34.8273 17.1815 33.8558 18.0265 32.8105C14.1929 29.5398 12.0537 25.4767 12.075 20.4736C12.0942 15.5191 14.1695 11.4602 18.0286 8.2021Z" fill="#20CE6E"/>
<path d="M43.9673 32.8105C44.8059 33.8495 45.5765 34.802 46.3428 35.7525C55.6787 29.19 57.0729 13.3969 46.3768 5.1969C45.5978 6.16632 44.8145 7.13995 43.9715 8.18734C47.7944 11.4517 49.9464 15.5001 49.9273 20.5074C49.9081 25.4682 47.854 29.5272 43.9673 32.8105Z" fill="#20CE6E"/>
<path d="M41.7472 10.3053C40.9213 11.34 40.138 12.32 39.359 13.2957C43.9269 17.3188 43.8928 23.6221 39.3611 27.681C40.138 28.6526 40.9171 29.6304 41.6961 30.6061C47.7455 26.3955 49.0014 15.9869 41.7472 10.3053Z" fill="#20CE6E"/>
<path d="M20.2061 30.7242C21.0916 29.622 21.8579 28.6673 22.6646 27.66C20.4786 25.7296 19.2164 23.403 19.2227 20.5305C19.2291 17.6644 20.3913 15.2915 22.6689 13.3484C21.8728 12.3432 21.0959 11.3611 20.2338 10.2737C17.0048 12.8974 15.3381 16.2124 15.2508 20.2355C15.1593 24.4503 16.8749 27.9023 20.2061 30.7242Z" fill="#20CE6E"/>
<path d="M30.9021 12.7436C35.1103 12.6783 38.7204 16.1977 38.7566 20.3999C38.7906 24.638 35.3232 28.189 31.1001 28.2417C26.8664 28.2922 23.2691 24.7918 23.2414 20.5938C23.2095 16.3473 26.6642 12.809 30.9021 12.7436ZM31.0469 24.2607C33.101 24.2354 34.7889 22.5095 34.7719 20.4463C34.7549 18.4021 32.9988 16.6908 30.9511 16.7225C28.8907 16.7541 27.2091 18.4758 27.224 20.5411C27.2389 22.5832 28.9886 24.286 31.0469 24.2607Z" fill="#20CE6E"/>
</svg>
