<svg width="24" height="26" viewBox="0 0 24 26" fill="none" xmlns="http://www.w3.org/2000/svg">
<path d="M2.14943 25.34C0.961461 25.34 0 24.3786 0 23.1906V21.1519C0 19.964 0.961461 19.0025 2.14943 19.0025C3.3374 19.0025 4.29887 19.964 4.29887 21.1519V23.1906C4.29383 24.3786 3.33237 25.34 2.14943 25.34Z" fill="#E6332A"/>
<path opacity="0.2" d="M8.59255 25.3401C7.40458 25.3401 6.44312 24.3786 6.44312 23.1906V14.8195C6.44312 13.6315 7.40458 12.67 8.59255 12.67C9.78052 12.67 10.742 13.6315 10.742 14.8195V23.1906C10.742 24.3786 9.78052 25.3401 8.59255 25.3401Z" fill="#E6332A"/>
<path opacity="0.2" d="M15.0358 25.3401C13.8479 25.3401 12.8865 24.3786 12.8865 23.1907V8.487C12.8865 7.29903 13.8479 6.33759 15.0358 6.33759C16.2238 6.33759 17.1853 7.29903 17.1853 8.487V23.1907C17.1853 24.3786 16.2238 25.3401 15.0358 25.3401Z" fill="#E6332A"/>
<path opacity="0.2" d="M21.4843 25.3401C20.2963 25.3401 19.3348 24.3786 19.3348 23.1906V2.14943C19.3348 0.961462 20.2963 0 21.4843 0C22.6722 0 23.6337 0.961462 23.6337 2.14943V23.1906C23.6287 24.3786 22.6672 25.3401 21.4843 25.3401Z" fill="#E6332A"/>
</svg>
