<svg width="30" height="45" viewBox="0 0 30 45" fill="none" xmlns="http://www.w3.org/2000/svg">
<path d="M4.23291 33.8303C8.80613 33.8303 13.29 33.8303 17.8501 33.8303C17.8501 35.9055 17.8501 37.9458 17.8501 40.0515C13.3074 40.0515 8.79959 40.0515 4.23291 40.0515C4.23291 37.9785 4.23291 35.9622 4.23291 33.8303Z" fill="#20CE6E"/>
<path d="M17.8501 14.413C13.2769 14.413 8.79305 14.413 4.23291 14.413C4.23291 12.3379 4.23291 10.2976 4.23291 8.19189C8.77561 8.19189 13.2834 8.19189 17.8501 8.19189C17.8501 10.2649 17.8501 12.279 17.8501 14.413Z" fill="#20CE6E"/>
<path d="M17.8501 22.9574C13.2769 22.9574 8.79305 22.9574 4.23291 22.9574C4.23291 20.8822 4.23291 18.842 4.23291 16.7363C8.77561 16.7363 13.2834 16.7363 17.8501 16.7363C17.8501 18.8093 17.8501 20.8234 17.8501 22.9574Z" fill="#20CE6E"/>
<path d="M17.8501 31.5046C13.2769 31.5046 8.79305 31.5046 4.23291 31.5046C4.23291 29.4317 4.23291 27.3892 4.23291 25.2835C8.77561 25.2835 13.2834 25.2835 17.8501 25.2835C17.8501 27.3565 17.8501 29.3706 17.8501 31.5046Z" fill="#20CE6E"/>
<path d="M24.0911 18.4237C23.4197 18.4237 22.7745 18.5414 22.1751 18.755C22.1751 13.8461 22.1751 8.92845 22.1751 3.99121C20.2045 3.99121 18.3081 3.99121 16.331 3.99121C16.331 2.58088 16.331 1.32314 16.331 0C12.7845 0 9.32082 0 5.73505 0C5.73505 1.36237 5.73505 2.64845 5.73505 4.06532C3.74707 4.06532 1.88117 4.06532 0 4.06532C0 17.5692 0 30.9379 0 44.3284C7.44619 44.3284 14.7986 44.3284 22.1751 44.3284C22.1751 39.3759 22.1751 34.4343 22.1751 29.4883C22.6132 29.6452 23.0775 29.7477 23.5593 29.7935C23.5593 28.5641 23.5593 27.3281 23.5593 26.0813C23.2911 26.0813 23.0426 26.0944 22.7941 26.0791C22.1358 26.0377 21.5233 25.4535 21.4863 24.7996C21.4536 24.2176 21.4688 23.6334 21.4601 23.0514C21.4579 22.962 21.5081 22.962 21.5713 22.962C21.883 22.9642 22.1969 22.962 22.5086 22.962C22.5544 22.962 22.598 22.962 22.6546 22.962C22.6546 22.2775 22.6546 21.604 22.6546 20.9217C22.9358 20.9217 23.2039 20.9217 23.4873 20.9217C23.4873 21.5953 23.4873 22.2688 23.4873 22.9511C23.9058 22.9511 24.3113 22.9511 24.7298 22.9511C24.7298 22.2775 24.7298 21.604 24.7298 20.913C24.9979 20.913 25.2551 20.9108 25.5124 20.9173C25.5342 20.9173 25.569 20.9871 25.569 21.0263C25.5734 21.4514 25.5712 21.8765 25.5712 22.3015C25.5712 22.5173 25.5712 22.7331 25.5712 22.962C25.8546 22.962 26.1249 22.962 26.393 22.962C26.7221 22.962 26.7243 22.962 26.72 23.2955C26.7156 23.7903 26.7265 24.2873 26.6982 24.7821C26.6589 25.4491 26.0486 26.0377 25.3772 26.0791C25.1331 26.0944 24.8868 26.0813 24.6274 26.0813C24.6274 27.3259 24.6274 28.5597 24.6274 29.7935C27.5221 29.521 29.7869 27.0862 29.7869 24.1216C29.7891 20.974 27.2388 18.4237 24.0911 18.4237ZM20.0214 20.1326C19.0144 21.1593 18.3931 22.5674 18.3931 24.1195C18.3931 25.6715 19.0144 27.0796 20.0214 28.1063C20.0214 32.7798 20.0214 37.4576 20.0214 42.1551C14.0662 42.1551 8.10449 42.1551 2.04247 42.1551C2.04247 30.1466 2.04247 18.2384 2.04247 6.2364C8.03038 6.2364 13.9921 6.2364 20.0214 6.2364C20.0214 10.8707 20.0214 15.5005 20.0214 20.1326Z" fill="#20CE6E"/>
</svg>
