<svg width="13" height="14" viewBox="0 0 13 14" fill="none" xmlns="http://www.w3.org/2000/svg">
<path d="M11.7135 12.6316C11.3259 12.8296 10.9213 13.0147 10.4556 13.0284C9.39197 13.0605 8.40323 12.7998 7.45503 12.3249C6.32712 11.7606 5.31544 11.041 4.39247 10.1853C3.52532 9.38165 2.71093 8.52979 1.9753 7.60453C1.1938 6.62114 0.592755 5.533 0.221119 4.33321C0.00547783 3.63811 -0.0679318 2.9109 0.0704759 2.18827C0.127827 1.88775 0.279999 1.60482 0.389349 1.31424C1.48896 2.41844 2.57099 3.50582 3.65302 4.5932C3.6622 4.58479 3.67061 4.57562 3.67978 4.5672C3.67902 4.57562 3.68208 4.58785 3.67749 4.5932C3.39532 4.92355 3.52073 5.26077 3.68437 5.57811C3.92372 6.04151 4.26094 6.44068 4.62187 6.81231C5.2015 7.408 5.79107 7.99452 6.39594 8.5642C6.67428 8.82573 6.99469 9.04366 7.30438 9.27001C7.5292 9.43365 7.79607 9.49865 8.06677 9.53765C8.11112 9.54377 8.16465 9.52771 8.20671 9.50706C8.29465 9.46424 8.37723 9.41147 8.45829 9.36483C9.54338 10.4522 10.6269 11.5404 11.7135 12.6316Z" fill="#D9D9D9"/>
<path d="M12.0378 12.2906C10.9573 11.204 9.87759 10.1182 8.78333 9.01778C8.82003 8.98107 8.86821 8.93137 8.91714 8.88243C9.13508 8.66449 9.35301 8.44656 9.57095 8.22862C9.79118 8.00839 10.0504 7.95945 10.3066 8.12768C10.5933 8.3158 10.8786 8.51155 11.134 8.73867C11.7947 9.32365 12.3873 9.97134 12.8774 10.71C12.9937 10.8851 13.0136 11.0732 12.9929 11.2721C12.9899 11.3042 12.9715 11.3409 12.9486 11.3646C12.658 11.6674 12.3651 11.9679 12.0722 12.2692C12.0653 12.2784 12.0516 12.283 12.0378 12.2906Z" fill="#D9D9D9"/>
<path d="M4.00367 4.25464C2.90635 3.15961 1.82279 2.07759 0.736938 0.99403C1.04816 0.680509 1.35786 0.359342 1.68056 0.0519393C1.73103 0.00376422 1.84191 -0.00847072 1.91685 0.00529359C2.03231 0.0267047 2.15313 0.0664683 2.25025 0.129937C3.20993 0.754684 4.0312 1.52931 4.71712 2.44616C4.79664 2.55322 4.85629 2.67404 4.93046 2.78568C5.05893 2.97838 4.99699 3.25749 4.86776 3.39667C4.59783 3.68801 4.30878 3.96177 4.02737 4.24241C4.01896 4.25158 4.00443 4.25464 4.00367 4.25464Z" fill="#D9D9D9"/>
</svg>
