<svg width="23" height="40" viewBox="0 0 23 40" fill="none" xmlns="http://www.w3.org/2000/svg">
<path d="M18.2457 15.2303C18.2457 17.7945 18.2528 20.3587 18.244 22.9229C18.2316 26.6922 15.4427 29.6015 11.8432 29.6139C8.24031 29.6263 5.43724 26.7258 5.43019 22.9512C5.42138 17.7644 5.43019 12.5776 5.42667 7.39074C5.42315 3.6568 8.14341 0.768741 11.7217 0.713882C15.3158 0.660793 18.1541 3.44267 18.2316 7.18369C18.288 9.8647 18.2422 12.5475 18.2422 15.2285C18.244 15.2303 18.244 15.2303 18.2457 15.2303Z" fill="#252525"/>
<path d="M7.06871 39.163C7.06871 38.1189 7.06871 37.1314 7.06871 36.0307C8.11524 36.0307 9.12477 36.0307 10.1766 36.0307C10.1766 35.4007 10.1766 34.884 10.1766 34.3124C6.98943 33.7355 4.42069 32.18 2.58662 29.4919C1.32868 27.6479 0.680325 25.6004 0.646851 23.2716C1.68633 23.2716 2.69233 23.2716 3.78995 23.2716C3.97847 25.9508 5.03909 28.216 7.32065 29.8016C8.87811 30.8828 10.6082 31.3376 12.4846 31.189C15.5008 30.9483 19.4279 28.7203 19.9001 23.2468C20.9043 23.2468 21.9139 23.2468 22.9164 23.2468C23.6669 27.8337 19.2729 33.0152 13.5152 34.3159C13.5152 34.8398 13.5152 35.3795 13.5152 35.9971C14.5318 35.9971 15.5202 35.9971 16.5791 35.9971C16.5791 37.0819 16.5791 38.0924 16.5791 39.1612C13.4095 39.163 10.2629 39.163 7.06871 39.163Z" fill="#252525"/>
</svg>
