<svg width="55" height="55" viewBox="0 0 55 55" fill="none" xmlns="http://www.w3.org/2000/svg">
<path d="M54.4231 52.8405L1.91115 0.328519C1.47313 -0.109506 0.766545 -0.109506 0.328519 0.328519C-0.109506 0.766545 -0.109506 1.47315 0.328519 1.91117L7.28578 8.86843C4.82708 12.1552 3.39149 16.1998 3.39469 20.4937C3.40428 31.3005 12.0785 40.029 22.8405 40.0897C27.2335 40.1153 31.3196 38.6638 34.6192 36.2019L37.4168 38.9995C36.269 39.9075 35.0189 40.7356 33.6568 41.4774C33.1868 41.7331 32.7232 42.0433 32.1381 41.7715C32.023 41.7172 31.8632 41.7619 31.7225 41.7619C25.5677 41.7619 19.413 41.7619 13.2583 41.7619C12.7275 41.7619 12.1968 41.7523 11.666 41.7651C9.94269 41.8067 8.89717 43.2998 8.93234 44.5627C8.98989 46.6825 8.99309 48.8055 8.93234 50.9253C8.89078 52.3992 10.1857 53.7773 11.7524 53.7517C15.0871 53.6973 18.4218 53.7357 21.7598 53.7357C25.1105 53.7357 28.4581 53.7357 31.8088 53.7357C32.0326 53.7357 32.2596 53.7421 32.4738 53.6973C33.7463 53.4287 34.6448 52.3449 34.6576 51.0436C34.6736 49.3554 34.6704 47.6673 34.6576 45.9791C34.6544 45.7201 34.7343 45.5858 34.9677 45.4707C36.9276 44.5116 38.7341 43.3446 40.3839 41.9761L52.8309 54.4231C53.0483 54.6405 53.336 54.7524 53.6238 54.7524C53.9115 54.7524 54.1961 54.6437 54.4167 54.4231C54.8611 53.9851 54.8611 53.2785 54.4231 52.8405ZM23.5183 35.9269C14.8633 36.2434 7.55434 29.3277 7.55434 20.5257C7.55754 17.3348 8.55188 14.3358 10.2624 11.8451L19.9214 21.504C20.2411 22.5208 21.0276 23.3105 22.0284 23.611L31.6489 33.2316C29.3022 34.8398 26.5013 35.815 23.5183 35.9269Z" fill="#E6332A"/>
<path d="M22.1724 17.4691L26.0315 21.3282C26.089 21.098 26.1242 20.8614 26.1242 20.6184C26.1306 18.796 24.7494 17.3796 22.9557 17.3732C22.6839 17.37 22.4218 17.4052 22.1724 17.4691Z" fill="#E6332A"/>
<path d="M22.4728 5.16283C31.0703 4.90704 38.3057 11.7012 38.3281 20.5481C38.3377 24.2441 37.0492 27.5949 34.923 30.2166L37.8709 33.1645C40.7388 29.785 42.4813 25.4143 42.4877 20.6088C42.5005 9.639 33.7081 1.05435 22.9556 0.996796C18.067 1.01918 13.6931 2.77767 10.3296 5.62643L13.2775 8.57431C15.7842 6.54084 18.9591 5.26834 22.4728 5.16283Z" fill="#E6332A"/>
<path d="M45.8736 25.4366C44.8952 29.5196 43.1527 33.0206 40.6365 35.9333L43.578 38.8748C46.9191 35.054 49.0901 30.6418 50.0812 25.6445C50.126 25.4175 50.2634 25.1777 50.4265 25.0082C51.2226 24.1737 51.5072 23.189 51.2738 22.0827C50.9796 20.7015 49.9373 19.7903 48.5209 19.5889C47.3507 19.4226 46.0559 20.0812 45.4164 21.1651C44.7546 22.2873 44.8569 23.6909 45.7265 24.7588C45.912 24.9922 45.9344 25.1841 45.8736 25.4366Z" fill="#E6332A"/>
</svg>
