<svg width="124" height="109" viewBox="0 0 124 109" fill="none" xmlns="http://www.w3.org/2000/svg">
<path d="M25.2168 77.8254C23.5079 79.9711 21.9447 81.9328 20.3891 83.8869C-6.08659 64.3156 -7.48125 21.2955 20.3431 0C21.9064 1.9464 23.4773 3.90047 25.2014 6.06143C14.0978 15.4409 7.99034 27.3569 8.01333 41.9319C8.03632 56.4227 13.9522 68.354 25.2168 77.8254Z" fill="#252525" fill-opacity="0.2"/>
<path d="M98.0153 6.1457C99.7471 3.97707 101.31 2.01534 102.874 0.0612793C128.414 19.0808 131.51 61.2197 102.912 84.0018C101.318 82.0017 99.7241 79.994 98.0153 77.8637C109.15 68.4689 115.203 56.5606 115.196 42.0622C115.188 27.5868 109.288 15.6172 98.0153 6.1457Z" fill="#252525" fill-opacity="0.2"/>
<path d="M87.9231 16.8049C89.6013 14.69 91.1875 12.6976 92.7661 10.7052C112.046 24.966 114.062 56.7292 92.8274 73.3426C91.2412 71.3578 89.6473 69.3731 87.9308 67.2275C95.7087 60.53 100.046 52.2003 100.008 41.9473C99.9617 31.7938 95.747 23.4794 87.9231 16.8049Z" fill="#252525" fill-opacity="0.2"/>
<path d="M35.3013 67.2275C33.6001 69.3578 32.0368 71.3119 30.4813 73.2583C11.5383 59.8174 8.71833 27.4565 30.4123 10.6516C31.9909 12.6363 33.5848 14.6286 35.2936 16.782C27.5387 23.4717 23.1708 31.7631 23.2091 42.0239C23.2474 52.185 27.4161 60.4994 35.3013 67.2275Z" fill="#252525" fill-opacity="0.2"/>
<path d="M39.8071 21.1116C41.4853 23.2342 43.0716 25.2419 44.6501 27.242C35.3856 35.4797 35.4545 48.3995 44.6425 56.7215C43.0716 58.7139 41.4853 60.714 39.9067 62.714C27.6383 54.0855 25.0865 32.7593 39.8071 21.1116Z" fill="#252525"/>
<path d="M83.5092 62.9516C81.7161 60.691 80.1605 58.7369 78.5206 56.6756C82.9575 52.7215 85.5169 47.9551 85.5016 42.0622C85.4862 36.1847 83.1337 31.3264 78.5129 27.3493C80.1298 25.2879 81.7007 23.2802 83.4556 21.0503C90.0074 26.4221 93.3868 33.2191 93.563 41.4645C93.7393 50.1007 90.2603 57.1737 83.5092 62.9516Z" fill="#252525"/>
<path d="M53.6618 55.6257L53.6542 55.6333L38.9412 108.523H48.4357L51.4166 97.7952H71.7312L74.7121 108.523H84.2066L69.5089 55.664L69.4859 55.6563C74.1144 52.9053 77.3099 47.8707 77.3482 42.2001C77.4095 33.5026 70.4055 26.2534 61.8076 26.1155C53.271 25.9775 45.9452 33.1961 45.8762 41.8016C45.8226 47.6255 48.9874 52.8134 53.6618 55.6257ZM54.4051 87.067L61.5777 61.281L68.7503 87.067H54.4051ZM61.708 34.2612C65.892 34.3302 69.2944 37.8552 69.2714 42.0852C69.2407 46.2692 65.6927 49.7558 61.5164 49.7098C57.3477 49.6562 53.93 46.1236 53.9607 41.8936C53.9913 37.7096 57.5546 34.1999 61.708 34.2612Z" fill="#252525"/>
<rect x="53" y="70" width="18" height="8" fill="#252525"/>
</svg>
