<svg width="48" height="54" viewBox="0 0 48 54" fill="none" xmlns="http://www.w3.org/2000/svg">
<path d="M19.5577 0.996826C30.3101 1.05757 39.1058 9.64223 39.0898 20.6089C39.077 31.502 30.1471 40.1538 19.4458 40.093C8.68379 40.0323 0.00959996 31.3037 8.15736e-06 20.497C-0.00958365 10.0611 8.44079 1.05118 19.5577 0.996826ZM4.15646 20.5257C4.15326 29.3278 11.4654 36.2435 20.1204 35.927C28.2031 35.6296 34.9525 28.9985 34.9302 20.5513C34.9046 11.7045 27.6724 4.90708 19.0749 5.16606C10.6469 5.41544 4.16605 12.3567 4.15646 20.5257Z" fill="#20CE6E"/>
<path d="M18.3715 53.7389C15.0368 53.7389 11.6988 53.7006 8.36406 53.7549C6.7974 53.7805 5.5025 52.4025 5.54406 50.9285C5.60481 48.8088 5.60162 46.6858 5.54406 44.566C5.50889 43.3031 6.5544 41.8099 8.27773 41.7684C8.80847 41.7556 9.33921 41.7652 9.86996 41.7652C16.0247 41.7652 22.1794 41.7652 28.3342 41.7652C28.4749 41.7652 28.6347 41.7236 28.7498 41.7748C29.3349 42.0465 29.7985 41.7364 30.2685 41.4806C36.727 37.9508 40.7716 32.5826 42.4821 25.4367C42.5428 25.1841 42.5173 24.9891 42.3318 24.7621C41.4654 23.6974 41.3599 22.2938 42.0217 21.1684C42.6611 20.0845 43.956 19.4291 45.1262 19.5921C46.5426 19.7903 47.5849 20.7016 47.8791 22.086C48.1125 23.1922 47.8279 24.177 47.0318 25.0115C46.8687 25.1809 46.7313 25.4207 46.6865 25.6477C45.6762 30.741 43.4445 35.2236 39.9946 39.0955C37.6127 41.7684 34.7959 43.8914 31.5762 45.4676C31.3428 45.5827 31.2629 45.717 31.2661 45.976C31.2789 47.6641 31.2821 49.3523 31.2661 51.0404C31.2533 52.3449 30.3549 53.4256 29.0824 53.6942C28.8681 53.7389 28.6379 53.7325 28.4173 53.7325C25.0698 53.7389 21.719 53.7389 18.3715 53.7389Z" fill="#20CE6E"/>
<path d="M19.5577 17.37C21.3482 17.3796 22.7294 18.7928 22.7262 20.6153C22.7198 22.3226 21.2427 23.7646 19.513 23.7454C17.7481 23.7262 16.3573 22.2747 16.3669 20.4586C16.3733 18.7641 17.8216 17.3637 19.5577 17.37Z" fill="#20CE6E"/>
</svg>
