<svg width="33" height="47" viewBox="0 0 33 47" fill="none" xmlns="http://www.w3.org/2000/svg">
<path d="M11.3459 26.0349C10.4231 26.0349 9.5679 26.0349 8.71354 26.0349C6.32248 26.0349 3.93224 26.0357 1.54118 26.0341C0.817253 26.0341 0.630566 25.7325 0.953396 25.0778C4.99692 16.8781 9.04371 8.68004 13.0807 0.477025C13.2527 0.126404 13.481 0.00925409 13.8495 0.00925409C17.7479 0.0175626 21.6463 0.0341797 25.5447 0.000114703C26.5197 -0.00819383 26.5882 0.435482 26.2401 1.13174C24.4197 4.77752 22.6238 8.4366 20.8188 12.0907C20.4903 12.7554 20.1642 13.4209 19.7917 14.1795C20.0118 14.1795 20.1642 14.1795 20.3159 14.1795C24.1874 14.1795 28.0589 14.1795 31.9296 14.1795C32.0657 14.1795 32.2165 14.1437 32.3331 14.1928C32.5059 14.2659 32.735 14.3681 32.7913 14.516C32.8492 14.6672 32.766 14.9123 32.6731 15.0743C32.5671 15.2604 32.3845 15.4025 32.2328 15.5612C25.8056 22.2836 19.3775 29.0044 12.9511 35.7276C9.61518 39.2181 6.28254 42.7126 2.94826 46.2055C2.86266 46.2944 2.7901 46.4265 2.68657 46.4606C2.5007 46.5221 2.2439 46.6093 2.11183 46.5271C1.97161 46.439 1.89661 46.1723 1.87868 45.9754C1.86564 45.83 1.98466 45.6696 2.05558 45.5209C5.08741 39.1707 8.12087 32.8213 11.1527 26.4719C11.213 26.3515 11.2628 26.226 11.3459 26.0349Z" fill="#20CE6E"/>
</svg>
