<svg width="33" height="47" viewBox="0 0 112 168" fill="none" xmlns="http://www.w3.org/2000/svg">
<path d="M8.46448 1.91011C7.67448 0.590113 5.96454 0.160121 4.65454 0.950121C3.33454 1.74012 2.91446 3.45012 3.69446 4.76012L26.4445 42.7201C17.9945 59.5401 9.54447 76.3601 1.08447 93.1701C-0.195526 95.7201 0.424547 96.7401 3.28455 96.7401C13.8745 96.7401 24.4546 96.7401 35.0446 96.7401C35.6546 96.7401 36.2645 96.7401 37.1145 96.7401C36.8045 97.4401 36.6045 97.9101 36.3845 98.3701C28.4545 114.69 20.5145 131.01 12.5745 147.32C9.89446 152.83 7.19452 158.33 4.50452 163.83C3.98452 164.89 3.79446 165.95 4.94446 166.72C5.99446 167.42 6.79454 166.83 7.52454 166.05C8.75454 164.75 10.0145 163.47 11.2745 162.18C29.1745 143.8 47.0845 125.42 64.9845 107.03L98.5245 163C98.9145 163.66 99.5445 164.1 100.234 164.27C100.924 164.44 101.684 164.35 102.334 163.96C103.654 163.17 104.075 161.46 103.295 160.15L8.46448 1.91011Z" fill="#E6332A"/>
<path d="M111.144 56.5001C110.584 56.2301 109.864 56.1901 109.224 56.1901C95.6644 56.1701 82.0944 56.18 68.5344 56.18C67.9944 56.18 67.4444 56.18 66.6544 56.18C67.0344 55.39 67.2844 54.8501 67.5444 54.3201C74.7444 40.0101 81.9244 25.68 89.1744 11.4C90.2544 9.27005 89.6544 7.83006 86.9844 7.85006C73.3244 7.96006 59.6744 7.92005 46.0144 7.87005C44.5344 7.86005 43.7144 8.35005 43.0444 9.68005C39.4644 16.82 35.8744 23.9601 32.2944 31.1001L72.9244 98.9101C80.9944 90.6301 89.0644 82.34 97.1344 74.0601C101.814 69.25 106.484 64.44 111.154 59.62C112.244 58.49 112.264 57.0301 111.144 56.5001Z" fill="#E6332A"/>
</svg>
