<svg width="48" height="31" viewBox="0 0 48 31" fill="none" xmlns="http://www.w3.org/2000/svg">
<path d="M44.8346 14.1989C42.0334 14.1989 39.1354 14.2012 36.2859 14.1896C36.0784 14.1896 35.8409 14.127 35.668 14.0249C29.3141 10.3488 22.9625 6.6634 16.6133 2.97569L12.5994 0.647088C12.5026 0.591425 12.4058 0.540402 12.2859 0.475461L11.4029 0V14.2081H0V16.7942H11.4167V31L12.3089 30.4967C12.4219 30.4341 12.5095 30.3831 12.5971 30.332L15.7925 28.4766C22.4138 24.6335 29.0375 20.788 35.6657 16.9542C35.8409 16.8522 36.0761 16.7895 36.2836 16.7895C39.1377 16.7779 42.0403 16.7779 44.8461 16.7803H48V14.2012L44.8346 14.1989ZM33.0052 15.4884L14.0334 26.5075V4.47164L33.0052 15.4884Z" fill="#20CE6E"/>
</svg>
