<svg width="33" height="47" viewBox="0 0 137 204" fill="none" xmlns="http://www.w3.org/2000/svg">
<path d="M81.8899 105.33C60.9099 105.33 40.3399 105.33 19.4199 105.33C19.4199 95.81 19.4199 86.45 19.4199 76.79C40.2599 76.79 60.9399 76.79 81.8899 76.79C81.8899 86.3 81.8899 95.54 81.8899 105.33Z" fill="#D9B03D"/>
<path d="M81.8899 144.54C60.9099 144.54 40.3399 144.54 19.4199 144.54C19.4199 135.03 19.4199 125.66 19.4199 116C40.2599 116 60.9399 116 81.8899 116C81.8899 125.51 81.8899 134.75 81.8899 144.54Z" fill="#D9B03D"/>
<path d="M19.4199 155.21C40.3999 155.21 60.9699 155.21 81.8899 155.21C81.8899 164.73 81.8899 174.09 81.8899 183.75C61.0499 183.75 40.3699 183.75 19.4199 183.75C19.4199 174.24 19.4199 164.99 19.4199 155.21Z" fill="#D9B03D"/>
<path d="M129.55 128.57C129.56 128.56 129.56 128.56 129.57 128.55L119.56 118.54C119.55 118.54 119.55 118.55 119.54 118.55L103.94 102.95C103.94 102.94 103.94 102.93 103.94 102.92L91.86 90.84C91.86 90.85 91.86 90.86 91.86 90.87L86.65 85.66C86.24 85.25 85.58 85.25 85.17 85.66C84.76 86.07 84.76 86.73 85.17 87.14L91.16 93.13C86.96 97.77 84.39 103.92 84.39 110.67C84.39 117.79 87.24 124.25 91.86 128.96C91.86 150.4 91.86 171.86 91.86 193.41C64.54 193.41 37.19 193.41 9.38 193.41C9.38 138.32 9.38 83.69 9.38 28.63C36.85 28.63 64.2 28.63 91.86 28.63C91.86 48.38 91.86 68.12 91.86 87.87L103.94 99.95C103.94 98.63 103.94 97.31 103.94 95.99C105.23 95.99 106.46 95.99 107.76 95.99C107.76 98.57 107.76 101.16 107.76 103.77L109.29 105.3C110.68 105.3 112.05 105.3 113.46 105.3C113.46 102.21 113.46 99.12 113.46 95.95C114.69 95.95 115.87 95.94 117.05 95.97C117.15 95.97 117.31 96.29 117.31 96.47C117.33 98.42 117.32 100.37 117.32 102.32C117.32 103.31 117.32 104.3 117.32 105.35C118.62 105.35 119.86 105.35 121.09 105.35C122.6 105.35 122.61 105.35 122.59 106.88C122.57 109.15 122.62 111.43 122.49 113.7C122.42 114.95 121.9 116.14 121.11 117.12L130.95 126.96C134.52 122.49 136.66 116.83 136.66 110.66C136.66 96.22 124.96 84.52 110.52 84.52C107.44 84.52 104.48 85.06 101.73 86.04C101.73 63.52 101.73 40.96 101.73 18.31C92.69 18.31 83.99 18.31 74.92 18.31C74.92 11.84 74.92 6.07 74.92 0C58.65 0 42.76 0 26.31 0C26.31 6.25 26.31 12.15 26.31 18.65C17.19 18.65 8.63 18.65 0 18.65C0 80.6 0 141.93 0 203.36C34.16 203.36 67.89 203.36 101.73 203.36C101.73 180.64 101.73 157.96 101.73 135.28C103.74 136 105.87 136.48 108.08 136.69C108.08 131.04 108.08 125.38 108.08 119.66C106.85 119.66 105.71 119.72 104.57 119.65C101.55 119.46 98.74 116.78 98.57 113.78C98.42 111.11 98.49 108.43 98.45 105.76C98.44 105.35 98.67 105.35 98.96 105.35C100.39 105.36 101.83 105.35 103.26 105.35C103.29 105.35 103.33 105.35 103.36 105.35L117.48 119.47C117.13 119.56 116.78 119.63 116.42 119.65C115.3 119.72 114.17 119.66 112.98 119.66C112.98 125.37 112.98 131.03 112.98 136.69C118.76 136.15 123.98 133.72 128.04 130.04L134.39 136.39C134.6 136.6 134.86 136.7 135.13 136.7C135.4 136.7 135.67 136.6 135.87 136.39C136.28 135.98 136.28 135.32 135.87 134.91L129.55 128.57Z" fill="#D9B03D"/>
</svg>
