<svg width="28" height="57" viewBox="0 0 28 57" fill="none" xmlns="http://www.w3.org/2000/svg">
<path d="M27.6854 56.2013C18.476 56.2013 9.2965 56.2013 0 56.2013C0 39.2851 0 22.3964 0 5.33701C2.34862 5.33701 4.67819 5.33701 7.16016 5.33701C7.16016 3.54708 7.16016 1.91963 7.16016 0.201294C11.637 0.201294 15.9613 0.201294 20.3892 0.201294C20.3892 1.87006 20.3892 3.46172 20.3892 5.24339C22.8548 5.24339 25.2252 5.24339 27.6854 5.24339C27.6854 22.3276 27.6854 39.219 27.6854 56.2013ZM2.55001 53.4586C10.1184 53.4586 17.5616 53.4586 24.9966 53.4586C24.9966 38.2579 24.9966 23.1812 24.9966 8.08249C17.469 8.08249 10.0259 8.08249 2.55001 8.08249C2.55001 23.2446 2.55001 38.2855 2.55001 53.4586Z" fill="#20CE6E"/>
<path d="M5.28508 42.9393C10.9947 42.9393 16.5927 42.9393 22.286 42.9393C22.286 45.5609 22.286 48.1384 22.286 50.7985C16.6145 50.7985 10.9865 50.7985 5.28508 50.7985C5.28508 48.1797 5.28508 45.6352 5.28508 42.9393Z" fill="#20CE6E"/>
<path d="M22.286 18.409C16.5764 18.409 10.9784 18.409 5.28508 18.409C5.28508 15.7875 5.28508 13.21 5.28508 10.5499C10.9566 10.5499 16.5846 10.5499 22.286 10.5499C22.286 13.1687 22.286 15.7131 22.286 18.409Z" fill="#20CE6E"/>
<path d="M22.286 29.2036C16.5764 29.2036 10.9784 29.2036 5.28508 29.2036C5.28508 26.5821 5.28508 24.0046 5.28508 21.3445C10.9566 21.3445 16.5846 21.3445 22.286 21.3445C22.286 23.9633 22.286 26.5105 22.286 29.2036Z" fill="#20CE6E"/>
<path d="M22.286 40.0011C16.5764 40.0011 10.9784 40.0011 5.28508 40.0011C5.28508 37.3823 5.28508 34.802 5.28508 32.1419C10.9566 32.1419 16.5846 32.1419 22.286 32.1419C22.286 34.7607 22.286 37.3052 22.286 40.0011Z" fill="#20CE6E"/>
</svg>
