<svg width="24" height="26" viewBox="0 0 24 26" fill="none" xmlns="http://www.w3.org/2000/svg">
<path d="M2.14944 25.3402C0.961462 25.3402 0 24.3787 0 23.1908V21.1521C0 19.9641 0.961462 19.0027 2.14944 19.0027C3.33741 19.0027 4.29881 19.9641 4.29881 21.1521V23.1908C4.29881 24.3787 3.33741 25.3402 2.14944 25.3402Z" fill="#20CE6E"/>
<path d="M8.59243 25.3399C7.40446 25.3399 6.44299 24.3785 6.44299 23.1905V14.8193C6.44299 13.6313 7.40446 12.6699 8.59243 12.6699C9.7804 12.6699 10.7419 13.6313 10.7419 14.8193V23.1905C10.7419 24.3785 9.7804 25.3399 8.59243 25.3399Z" fill="#20CE6E"/>
<path d="M15.0409 25.34C13.8529 25.34 12.8915 24.3785 12.8915 23.1906V8.48688C12.8915 7.29891 13.8529 6.33746 15.0409 6.33746C16.2289 6.33746 17.1903 7.29891 17.1903 8.48688V23.1906C17.1853 24.3785 16.2239 25.34 15.0409 25.34Z" fill="#20CE6E"/>
<path d="M21.4844 25.3401C20.2964 25.3401 19.335 24.3786 19.335 23.1906V2.14944C19.335 0.961462 20.2964 0 21.4844 0C22.6724 0 23.6338 0.961462 23.6338 2.14944V23.1906C23.6338 24.3786 22.6724 25.3401 21.4844 25.3401Z" fill="#20CE6E"/>
</svg>
