<svg width="25" height="57" viewBox="0 0 25 57" fill="none" xmlns="http://www.w3.org/2000/svg">
<path d="M19.4203 20.476C19.4203 24.7257 19.3769 28.9785 19.4636 33.2281C19.4791 33.9432 19.8818 34.8284 20.3961 35.323C24.3086 39.0624 25.5229 44.6886 23.373 49.5904C21.2418 54.4512 16.1893 57.4817 11.1368 56.9336C5.78078 56.3539 1.38814 52.4823 0.307021 47.1742C-0.606821 42.6946 0.505279 38.719 3.83228 35.5625C4.68417 34.7528 4.93819 33.959 4.93199 32.847C4.89792 24.3981 4.89792 15.9492 4.9196 7.50027C4.93199 3.73575 7.44429 0.758791 11.0625 0.106695C14.3368 -0.482397 17.6948 1.41404 18.8534 4.65562C19.2313 5.71409 19.38 6.90488 19.3955 8.03581C19.4574 12.1815 19.4203 16.3303 19.4203 20.476ZM16.6973 21.1218C16.6973 16.8186 16.7128 12.5123 16.6849 8.20907C16.6787 7.43411 16.6323 6.61506 16.3814 5.8968C15.6534 3.83341 13.4756 2.56702 11.4652 2.91354C9.05823 3.32937 7.5651 5.06515 7.5589 7.62313C7.53412 16.4942 7.52483 25.3652 7.57439 34.2362C7.58059 35.4585 7.21815 36.2303 6.26094 36.9927C2.07275 40.3287 1.33858 46.7142 4.65319 50.7623C7.11282 53.7644 10.3283 54.9521 14.0673 54.0858C17.9086 53.1974 20.4766 50.7308 21.3502 46.7741C22.1866 42.9875 21.1705 39.6483 18.1812 37.1785C17.0505 36.2429 16.6354 35.323 16.6664 33.8771C16.7562 29.6274 16.6973 25.3715 16.6973 21.1218Z" fill="#20CE6E"/>
<path d="M10.1703 17.329C11.5488 17.329 12.7167 17.329 14.0735 17.329C14.0735 18.3339 14.0735 19.2632 14.0735 20.1894C14.0735 25.3809 14.1076 30.5725 14.0456 35.7641C14.0332 36.8887 14.3616 37.5503 15.294 38.1803C18.5931 40.417 19.73 43.3215 18.7542 46.6198C17.9457 49.3573 15.6162 51.2065 12.695 51.427C9.76449 51.6507 7.19644 50.1921 5.97901 47.6121C4.65317 44.8052 5.06207 41.9039 7.09421 39.7554C7.41328 39.4152 7.72616 39.0057 8.12887 38.8198C10.0402 37.9409 10.2415 36.3815 10.2075 34.463C10.1052 28.8115 10.1703 23.1569 10.1703 17.329Z" fill="#20CE6E"/>
</svg>
