<svg width="80" height="181" viewBox="0 0 80 181" fill="none" xmlns="http://www.w3.org/2000/svg">
<path d="M62.9401 65.0612C62.9401 78.5512 62.8001 92.0512 63.0801 105.541C63.1301 107.811 64.4301 110.621 66.0901 112.191C78.7201 124.061 82.6402 141.921 75.7001 157.481C68.8202 172.911 52.5101 182.531 36.2001 180.791C18.9101 178.951 4.73013 166.661 1.24013 149.811C-1.70987 135.591 1.88013 122.971 12.6201 112.951C15.3701 110.381 16.1901 107.861 16.1701 104.331C16.0601 77.5112 16.0601 50.6912 16.1301 23.8712C16.1601 11.9412 24.2701 2.4812 35.9501 0.411199C46.5201 -1.4588 57.3601 4.5612 61.1001 14.8512C62.3201 18.2112 62.8001 21.9912 62.8501 25.5812C63.0601 38.7412 62.9401 51.9012 62.9401 65.0612ZM54.1501 67.1112C54.1501 53.4512 54.2001 39.7812 54.1101 26.1212C54.0901 23.6612 53.9401 21.0612 53.1301 18.7812C50.7801 12.2312 43.7501 8.21119 37.2601 9.31119C29.4901 10.6312 24.6701 16.1412 24.6501 24.2612C24.5701 52.4212 24.5401 80.5812 24.7001 108.741C24.7201 112.621 23.5501 115.071 20.4601 117.491C6.94013 128.081 4.57012 148.351 15.2701 161.201C23.2101 170.731 33.5901 174.501 45.6601 171.751C58.0601 168.931 66.3502 161.101 69.1702 148.541C71.8701 136.521 68.5901 125.921 58.9401 118.081C55.2901 115.111 53.9501 112.191 54.0501 107.601C54.3401 94.1112 54.1501 80.6112 54.1501 67.1112Z" fill="#E6332A"/>
<path d="M73.5298 34.5713H5.83975C2.75975 34.5713 0.259766 36.5213 0.259766 38.9213C0.259766 41.3213 2.75975 43.2713 5.83975 43.2713H73.5298C76.6098 43.2713 79.1097 41.3213 79.1097 38.9213C79.0997 36.5213 76.6098 34.5713 73.5298 34.5713Z" fill="#E6332A"/>
<path d="M33.08 34.5713C37.53 34.5713 41.3 34.5713 45.68 34.5713C45.68 37.7613 45.79 97.1113 45.59 113.591C45.55 117.161 46.61 119.261 49.62 121.261C60.27 128.361 63.94 137.581 60.79 148.051C58.18 156.741 50.66 162.611 41.23 163.311C31.77 164.021 23.48 159.391 19.55 151.201C15.27 142.291 16.59 133.081 23.15 126.261C24.18 125.181 25.19 123.881 26.49 123.291C32.66 120.501 33.31 115.551 33.2 109.461C32.87 91.5313 33.08 53.0713 33.08 34.5713Z" fill="#E6332A"/>
</svg>
