<svg width="20" height="46" viewBox="0 0 20 46" fill="none" xmlns="http://www.w3.org/2000/svg">
<path d="M15.939 16.7852C15.939 20.1755 15.9038 23.5682 15.9742 26.9585C15.9867 27.529 16.3134 28.2352 16.7306 28.6298C19.9048 31.6129 20.8899 36.1014 19.1458 40.0119C17.4167 43.8898 13.3177 46.3075 9.21874 45.8702C4.87346 45.4077 1.30977 42.319 0.432675 38.0843C-0.308711 34.5106 0.593518 31.339 3.29267 28.8208C3.98379 28.1749 4.18987 27.5416 4.18485 26.6544C4.1572 19.9141 4.1572 13.1738 4.17479 6.43342C4.18233 3.4352 6.22052 1.05774 9.15591 0.537511C11.8123 0.0675473 14.5366 1.58048 15.4765 4.16654C15.7831 5.01096 15.9038 5.96095 15.9163 6.86318C15.9691 10.1705 15.939 13.4778 15.939 16.7852ZM13.7274 17.3004C13.7274 13.8674 13.7399 10.4319 13.7173 6.99888C13.7123 6.38064 13.6746 5.72722 13.471 5.15422C12.8804 3.50809 11.1137 2.49779 9.48262 2.77424C7.52988 3.10597 6.31853 4.49074 6.31351 6.53144C6.2934 13.6085 6.28586 20.6856 6.32607 27.7627C6.3311 28.7378 6.03706 29.3536 5.26049 29.9618C1.86267 32.6232 1.26705 37.7174 3.95615 40.9469C5.95161 43.3419 8.56028 44.2894 11.5937 43.5983C14.71 42.8895 16.7934 40.9217 17.5022 37.7652C18.1807 34.7443 17.3564 32.0804 14.9312 30.11C14.0139 29.3636 13.6771 28.6298 13.7022 27.4762C13.7751 24.086 13.7299 20.6932 13.7274 17.3004Z" fill="#20CE6E"/>
<path d="M18.5849 21.0878H1.41492C0.633319 21.0878 0 21.5779 0 22.1811C0 22.7842 0.633319 23.2743 1.41492 23.2743H18.5849C19.3665 23.2743 19.9998 22.7842 19.9998 22.1811C19.9998 21.5779 19.3665 21.0878 18.5849 21.0878Z" fill="#20CE6E"/>
<path d="M8.482 21.0878C9.60037 21.0878 10.5478 21.0878 11.6486 21.0878C11.6486 21.8895 11.6763 24.8425 11.626 28.9817C11.6159 29.8789 11.8823 30.4067 12.6388 30.9093C15.3153 32.6937 16.2377 35.0108 15.446 37.6421C14.7901 39.8261 12.9002 41.3013 10.5302 41.4772C8.15278 41.6557 6.06935 40.4921 5.08168 38.4338C4.00604 36.1945 4.33778 33.8799 5.98642 32.1659C6.24528 31.8945 6.49911 31.5678 6.82582 31.4195C8.37645 30.7183 8.53981 29.4743 8.51216 27.9438C8.42923 23.4377 8.482 25.7372 8.482 21.0878Z" fill="#20CE6E"/>
</svg>
