<svg width="34" height="31" viewBox="0 0 34 31" fill="none" xmlns="http://www.w3.org/2000/svg">
<path d="M15.4441 3.89632C15.4441 3.44457 15.2888 3.10577 14.8794 2.89402C14.7524 2.82343 14.6112 2.80932 14.47 2.76697C14.4277 2.76697 14.3994 2.76697 14.3571 2.76697C13.9477 2.7952 13.6794 3.07754 13.383 3.31753C11.5619 4.78571 9.74079 6.26799 7.91968 7.73617C7.59499 8.00439 7.27029 8.27263 6.93148 8.52674C6.88913 8.55497 6.81855 8.5832 6.76208 8.5832C4.87039 8.5832 2.9787 8.5832 1.08701 8.5832C0.60703 8.5832 0.239987 8.80907 0.084699 9.21846C0.0423478 9.31728 0.0282342 9.43021 0 9.54315C0 11.7595 0 13.99 0 16.2064C0 17.844 0 19.4816 0 21.1333V21.9097C0 22.0932 0 22.2626 0 22.4462V22.5309H0.0282294C0.112932 23.0391 0.536446 23.392 1.04466 23.392C2.95047 23.392 4.87039 23.392 6.77619 23.392C6.83266 23.392 6.90325 23.4202 6.9456 23.4485C9.13375 25.2131 11.3219 26.9919 13.5242 28.7706C13.7359 28.94 13.9336 29.1377 14.23 29.1941H14.5971C14.7947 29.1377 14.9782 29.053 15.1335 28.8977C15.317 28.7142 15.4159 28.4883 15.43 28.2201C15.43 28.1777 15.43 28.1212 15.43 28.0789C15.4441 20.018 15.4441 11.9572 15.4441 3.89632Z" fill="#252525"/>
<path d="M24.8891 28.1435C28.9177 24.7925 31.0315 20.567 31.0408 15.4365C31.05 10.277 28.8667 6.05912 24.8953 2.73713C25.5129 1.97428 26.0734 1.28175 26.6324 0.592285C36.5825 8.13211 36.0822 23.3631 26.6154 30.2899C26.058 29.5974 25.499 28.9033 24.8891 28.1435Z" fill="#252525"/>
<path d="M21.2821 24.3918C24.1016 22.01 25.5917 19.0656 25.6056 15.4685C25.6195 11.8362 24.0584 8.89941 21.2852 6.53137C21.8967 5.77157 22.4649 5.06529 23.03 4.36206C30.7891 10.3089 29.7777 21.7654 23.0053 26.5245C22.4494 25.8365 21.8905 25.1455 21.2821 24.3918Z" fill="#252525"/>
<path d="M19.6716 8.06616C24.9354 12.1877 24.0228 19.7382 19.6345 22.7942C19.0694 22.0879 18.5042 21.3771 17.9407 20.6723C21.2265 17.7279 21.2512 13.1539 17.9391 10.237C18.5042 9.52765 19.0709 8.81678 19.6716 8.06616Z" fill="#252525"/>
</svg>
